# xmcd
#
# Track frame offsets:
#	150
#	10490
#	20182
#	35575
#	44230
#	58240
#	73177
#	88272
#	101452
#	112132
#	128085
#	138165
#	146455
#	156017
#	175897
#	189130
#
# Disc length: 2653 seconds
#
# Revision: 0
# Processed by: cddbd v1.4b42PL0 Copyright (c) Steve Scherf et al.
# Submitted via: audiograbber 1.80
#
DISCID=ec0a5b10
DTITLE=Various Artist - Country classics
DYEAR=1900
DGENRE=
TTITLE0=Johnny Russell - Jambalaya
TTITLE1=Dave Dudley - Truck Drivin` Son-Of-A-Gun
TTITLE2=Red Simpson - I`m A Truck
TTITLE3=Johnny Cash - Katy Too
TTITLE4=Jean Shepard - Tom Dooley
TTITLE5=Jeannie C. Riley - Harper Valley
TTITLE6=John Denver - High, Wide And Handsome
TTITLE7=Kenny Rogers - Ruby, Don`t Take Your Love To Town
TTITLE8=Johnny Russell - King of The Road
TTITLE9=Jerry Lee Lewis - You Win Again
TTITLE10=Buddy Knox - Devil Woman
TTITLE11=Sandy Posey - Baby On My Mind
TTITLE12=Lynn Anderson - Snowbird
TTITLE13=John Denver - Chained To The Whell
TTITLE14=Dave Dudley - The Pool Shark
TTITLE15=Johnny Cash - Ballad Of A teenage Queen
EXTD=
EXTT0=
EXTT1=
EXTT2=
EXTT3=
EXTT4=
EXTT5=
EXTT6=
EXTT7=
EXTT8=
EXTT9=
EXTT10=
EXTT11=
EXTT12=
EXTT13=
EXTT14=
EXTT15=
PLAYORDER=
